<svg width="81" height="22" viewBox="0 0 81 22" fill="none" xmlns="http://www.w3.org/2000/svg">
<path d="M30.3681 7.18241H33.1346V4.32655H35.1411V12.6547H33.1346V9.04642H30.3681V12.3127H22.2812V4.49756H24.2877V6.56677H28.3615V4.49756H30.3681V7.18241ZM22.9196 13.7663H35.1563V19.8029H22.9196V13.7663ZM28.3615 10.5V8.37948H24.2877V10.5H28.3615ZM24.9109 17.9902H33.1346V15.579H24.9109V17.9902Z" fill="white"/>
<path d="M44.8545 10.5684H47.3474V4.32655H49.3539V19.8029H47.3474V12.4324H44.8697C44.7633 15.8184 43.8664 19.2728 40.6287 19.2728C37.1477 19.2728 36.3572 15.3396 36.3572 11.68C36.3572 8.02036 37.1477 4.13844 40.6287 4.13844C43.7448 4.13844 44.7025 7.30212 44.8545 10.5684ZM38.3637 11.68C38.3637 14.1767 38.6221 17.4259 40.6135 17.4259C42.6048 17.4259 42.8784 14.1767 42.8784 11.68C42.8784 9.18322 42.5896 5.98534 40.6135 5.98534C38.6373 5.98534 38.3637 9.21743 38.3637 11.68Z" fill="white"/>
<path d="M54.127 19.5293V15.2541H50.494V13.3901H60.633V15.2541H56.1335V19.5293H54.127ZM55.3279 3.79642C58.0792 3.79642 59.7513 5.64332 59.7513 7.98616C59.7513 10.329 58.064 12.1588 55.3279 12.1588C52.5917 12.1588 50.9196 10.329 50.9196 7.98616C50.9196 5.64332 52.5765 3.79642 55.3279 3.79642ZM55.3279 10.3803C56.9696 10.3803 57.7448 9.28583 57.7448 7.98616C57.7448 6.68648 56.9696 5.59202 55.3279 5.59202C53.6862 5.59202 52.9261 6.72068 52.9261 7.98616C52.9261 9.25163 53.6862 10.3803 55.3279 10.3803ZM63.7947 19.8029H61.7882V4.32655H63.7947V19.8029Z" fill="white"/>
<path d="M66 4.66857H73.9349V5.89984C73.9349 11.0814 71.7003 16.0749 67.5201 19.2557L66.1064 17.9389C68.2345 16.5195 69.9674 14.1596 70.9555 11.509L66 11.8852V9.98697L71.5331 9.57655C71.7459 8.56759 71.8675 7.55863 71.8675 6.53257H66V4.66857ZM78.6927 19.8029H76.6862V4.32655H78.6927V19.8029Z" fill="white"/>
<path d="M7.25074 12.6739C8.24941 11.9415 8.53123 10.437 7.88021 9.31347C7.22919 8.18997 5.89186 7.87293 4.8932 8.60532C3.89454 9.33772 3.61272 10.8422 4.26373 11.9657C4.91475 13.0892 6.25208 13.4062 7.25074 12.6739Z" fill="white" stroke="white" stroke-miterlimit="10"/>
<path d="M8.12917 5.83144C9.32129 5.83144 10.2877 4.74424 10.2877 3.4031C10.2877 2.06197 9.32129 0.974762 8.12917 0.974762C6.93705 0.974762 5.97064 2.06197 5.97064 3.4031C5.97064 4.74424 6.93705 5.83144 8.12917 5.83144Z" fill="white" stroke="white" stroke-miterlimit="10"/>
<path d="M9.29972 5.43813L12.8111 11.4748L8.41807 14.6898L4.96747 17.2207" stroke="white" stroke-miterlimit="10"/>
<path d="M17.5234 14.0912C18.7155 14.0912 19.6819 13.004 19.6819 11.6629C19.6819 10.3217 18.7155 9.23454 17.5234 9.23454C16.3313 9.23454 15.3649 10.3217 15.3649 11.6629C15.3649 13.004 16.3313 14.0912 17.5234 14.0912Z" fill="white" stroke="white" stroke-miterlimit="10"/>
<path d="M15.7144 12.9967L9.90771 17.2549" stroke="white" stroke-miterlimit="10"/>
<path d="M12.4766 15.3567L11.0021 12.8086" stroke="white" stroke-miterlimit="10"/>
<path d="M8.41803 14.6898L12.0814 21" stroke="white" stroke-miterlimit="10"/>
<path d="M3.15852 20.9829C4.35064 20.9829 5.31705 19.8957 5.31705 18.5546C5.31705 17.2134 4.35064 16.1262 3.15852 16.1262C1.9664 16.1262 1 17.2134 1 18.5546C1 19.8957 1.9664 20.9829 3.15852 20.9829Z" fill="white" stroke="white" stroke-miterlimit="10"/>
<path d="M3.15852 19.7688C3.75458 19.7688 4.23778 19.2252 4.23778 18.5546C4.23778 17.884 3.75458 17.3404 3.15852 17.3404C2.56246 17.3404 2.07925 17.884 2.07925 18.5546C2.07925 19.2252 2.56246 19.7688 3.15852 19.7688Z" fill="#363866"/>
<path d="M6.04667 11.851C6.64273 11.851 7.12593 11.3074 7.12593 10.6368C7.12593 9.96626 6.64273 9.42265 6.04667 9.42265C5.45061 9.42265 4.96741 9.96626 4.96741 10.6368C4.96741 11.3074 5.45061 11.851 6.04667 11.851Z" fill="#363866"/>
<path d="M8.12925 4.61729C8.72531 4.61729 9.20851 4.07369 9.20851 3.40312C9.20851 2.73255 8.72531 2.18895 8.12925 2.18895C7.53319 2.18895 7.04999 2.73255 7.04999 3.40312C7.04999 4.07369 7.53319 4.61729 8.12925 4.61729Z" fill="#363866"/>
<path d="M17.5234 12.877C18.1194 12.877 18.6026 12.3334 18.6026 11.6629C18.6026 10.9923 18.1194 10.4487 17.5234 10.4487C16.9273 10.4487 16.4441 10.9923 16.4441 11.6629C16.4441 12.3334 16.9273 12.877 17.5234 12.877Z" fill="#363866"/>
<path d="M7 12.5L8.5 15" stroke="white"/>
<path d="M34.1379 5.06188C35.33 5.06188 36.2964 3.97467 36.2964 2.63354C36.2964 1.2924 35.33 0.2052 34.1379 0.2052C32.9458 0.2052 31.9794 1.2924 31.9794 2.63354C31.9794 3.97467 32.9458 5.06188 34.1379 5.06188Z" fill="white"/>
<path d="M34.1379 3.84773C34.7339 3.84773 35.2171 3.30412 35.2171 2.63356C35.2171 1.96299 34.7339 1.41939 34.1379 1.41939C33.5418 1.41939 33.0586 1.96299 33.0586 2.63356C33.0586 3.30412 33.5418 3.84773 34.1379 3.84773Z" fill="#363866"/>
<path d="M78.1585 4.85668C79.3506 4.85668 80.317 3.76947 80.317 2.42834C80.317 1.0872 79.3506 0 78.1585 0C76.9664 0 76 1.0872 76 2.42834C76 3.76947 76.9664 4.85668 78.1585 4.85668Z" fill="white"/>
<path d="M78.1585 3.64252C78.7546 3.64252 79.2378 3.09892 79.2378 2.42835C79.2378 1.75778 78.7546 1.21418 78.1585 1.21418C77.5625 1.21418 77.0793 1.75778 77.0793 2.42835C77.0793 3.09892 77.5625 3.64252 78.1585 3.64252Z" fill="#363866"/>
<path d="M48.4267 4.85668C49.6188 4.85668 50.5852 3.76947 50.5852 2.42834C50.5852 1.0872 49.6188 0 48.4267 0C47.2346 0 46.2682 1.0872 46.2682 2.42834C46.2682 3.76947 47.2346 4.85668 48.4267 4.85668Z" fill="white"/>
<path d="M48.4267 3.64252C49.0228 3.64252 49.506 3.09892 49.506 2.42835C49.506 1.75778 49.0228 1.21418 48.4267 1.21418C47.8306 1.21418 47.3474 1.75778 47.3474 2.42835C47.3474 3.09892 47.8306 3.64252 48.4267 3.64252Z" fill="#363866"/>
<path d="M62.6276 4.85668C63.8198 4.85668 64.7862 3.76947 64.7862 2.42834C64.7862 1.0872 63.8198 0 62.6276 0C61.4355 0 60.4691 1.0872 60.4691 2.42834C60.4691 3.76947 61.4355 4.85668 62.6276 4.85668Z" fill="white"/>
<path d="M62.6277 3.64252C63.2238 3.64252 63.707 3.09892 63.707 2.42835C63.707 1.75778 63.2238 1.21418 62.6277 1.21418C62.0316 1.21418 61.5484 1.75778 61.5484 2.42835C61.5484 3.09892 62.0316 3.64252 62.6277 3.64252Z" fill="#363866"/>
</svg>
