<svg width="42" height="20" viewBox="0 0 42 20" fill="none" xmlns="http://www.w3.org/2000/svg">
<path d="M39.9922 7.92969H30.0234V6.57031H39.9922V7.92969ZM39.8828 3.85156H32.0156V7.23438H30.0234V2.51562H39.8828V3.85156ZM39.5391 5.85156H31.4453V4.54688H39.5391V5.85156ZM41.3672 10.0703H28.4531V8.59375H41.3672V10.0703ZM39.8125 14.1719H31.8906V15.625H29.9297V12.8359H37.8438V12.1484H29.9219V10.75H39.8125V14.1719ZM40.1875 16.3359H29.9297V14.9219H40.1875V16.3359Z" fill="white"/>
<path d="M1 13.24H18.1905M2.80952 6.76H20M15.4762 1L12.7619 19M8.2381 1L5.52381 19" stroke="white" stroke-width="2" stroke-linecap="round" stroke-linejoin="round"/>
</svg>
