<svg width="74" height="25" viewBox="0 0 74 25" fill="none" xmlns="http://www.w3.org/2000/svg">
<path d="M45.4219 15.5078H32.4297V13.9297H45.4219V15.5078ZM39.8984 14.5547H37.9453V11.7891H39.8984V14.5547ZM43.9375 12.7109H34V11.1484H43.9375V12.7109ZM43.8594 9.39844H35.9766V12.1719H34V7.84375H43.8594V9.39844ZM38.8906 16.2109C39.9219 16.2109 40.8073 16.3125 41.5469 16.5156C42.2917 16.7188 42.8594 17.0182 43.25 17.4141C43.6458 17.8099 43.8438 18.2865 43.8438 18.8438C43.8438 19.3958 43.6458 19.8672 43.25 20.2578C42.8594 20.6484 42.2917 20.9453 41.5469 21.1484C40.8073 21.3516 39.9219 21.4557 38.8906 21.4609C37.8594 21.4557 36.9688 21.3516 36.2188 21.1484C35.474 20.9453 34.901 20.6484 34.5 20.2578C34.1042 19.8672 33.9062 19.3958 33.9062 18.8438C33.9062 18.2865 34.1042 17.8099 34.5 17.4141C34.901 17.0182 35.474 16.7188 36.2188 16.5156C36.9635 16.3125 37.8542 16.2109 38.8906 16.2109ZM38.8906 17.7344C38.2344 17.7344 37.6875 17.776 37.25 17.8594C36.8125 17.9375 36.4844 18.0599 36.2656 18.2266C36.0469 18.3932 35.9375 18.599 35.9375 18.8438C35.9375 19.0938 36.0469 19.2995 36.2656 19.4609C36.4844 19.6224 36.8099 19.7422 37.2422 19.8203C37.6797 19.8984 38.2292 19.9375 38.8906 19.9375C39.5469 19.9375 40.0911 19.8984 40.5234 19.8203C40.9609 19.7422 41.2891 19.6224 41.5078 19.4609C41.7266 19.2943 41.8359 19.0885 41.8359 18.8438C41.8359 18.599 41.7266 18.3932 41.5078 18.2266C41.2891 18.0599 40.9583 17.9375 40.5156 17.8594C40.0781 17.776 39.5365 17.7344 38.8906 17.7344ZM50.0859 8.21094C50.8047 8.21094 51.4453 8.41927 52.0078 8.83594C52.5755 9.2526 53.0208 9.84375 53.3438 10.6094C53.6719 11.375 53.8359 12.2656 53.8359 13.2812C53.8359 14.3021 53.6719 15.1953 53.3438 15.9609C53.0208 16.7266 52.5755 17.3177 52.0078 17.7344C51.4453 18.1458 50.8047 18.3516 50.0859 18.3516C49.362 18.3516 48.7135 18.1458 48.1406 17.7344C47.5729 17.3177 47.1276 16.7266 46.8047 15.9609C46.487 15.1953 46.3281 14.3021 46.3281 13.2812C46.3281 12.2656 46.487 11.375 46.8047 10.6094C47.1276 9.84375 47.5729 9.2526 48.1406 8.83594C48.7135 8.41927 49.362 8.21094 50.0859 8.21094ZM50.0859 10.0156C49.7214 10.0104 49.3984 10.1354 49.1172 10.3906C48.8411 10.6458 48.6276 11.0182 48.4766 11.5078C48.3255 11.9974 48.25 12.5885 48.25 13.2812C48.25 13.974 48.3255 14.5651 48.4766 15.0547C48.6276 15.5443 48.8438 15.9167 49.125 16.1719C49.4062 16.4219 49.7266 16.5469 50.0859 16.5469C50.4557 16.5469 50.7786 16.4219 51.0547 16.1719C51.3307 15.9167 51.5417 15.5443 51.6875 15.0547C51.8385 14.5651 51.9141 13.974 51.9141 13.2812C51.9141 12.5833 51.8385 11.9896 51.6875 11.5C51.5417 11.0104 51.3307 10.6406 51.0547 10.3906C50.7786 10.1354 50.4557 10.0104 50.0859 10.0156ZM57.4688 21.4375H55.4688V7.20312H57.4688V21.4375ZM59.5781 14.2422H57.0312V12.5781H59.5781V14.2422ZM72 21.4766H70.0078V7.20312H72V21.4766ZM62.1172 16.5C63.4505 16.5052 64.6536 16.474 65.7266 16.4062C66.7995 16.3333 67.888 16.2083 68.9922 16.0312L69.1719 17.6406C68.0781 17.8333 66.987 17.9661 65.8984 18.0391C64.8151 18.1068 63.5547 18.1406 62.1172 18.1406H60.8438V16.5H62.1172ZM67.5859 13.8828H62.8984V17.125H60.8438V12.3203H65.5547V10.0156H60.8281V8.40625H67.5859V13.8828Z" fill="white"/>
<path d="M16.067 4.25C16.067 5.24456 15.6719 6.19839 14.9687 6.90165C14.2654 7.60491 13.3116 8 12.317 8C11.3225 8 10.3686 7.60491 9.66537 6.90165C8.9621 6.19839 8.56702 5.24456 8.56702 4.25C8.56702 3.25544 8.9621 2.30161 9.66537 1.59835C10.3686 0.895088 11.3225 0.5 12.317 0.5C13.3116 0.5 14.2654 0.895088 14.9687 1.59835C15.6719 2.30161 16.067 3.25544 16.067 4.25ZM23.567 5C23.567 5.79565 23.2509 6.55871 22.6883 7.12132C22.1257 7.68393 21.3627 8 20.567 8C19.7714 8 19.0083 7.68393 18.4457 7.12132C17.8831 6.55871 17.567 5.79565 17.567 5C17.567 4.20435 17.8831 3.44129 18.4457 2.87868C19.0083 2.31607 19.7714 2 20.567 2C21.3627 2 22.1257 2.31607 22.6883 2.87868C23.2509 3.44129 23.567 4.20435 23.567 5ZM4.06702 8C4.86267 8 5.62573 7.68393 6.18834 7.12132C6.75095 6.55871 7.06702 5.79565 7.06702 5C7.06702 4.20435 6.75095 3.44129 6.18834 2.87868C5.62573 2.31607 4.86267 2 4.06702 2C3.27137 2 2.50831 2.31607 1.9457 2.87868C1.38309 3.44129 1.06702 4.20435 1.06702 5C1.06702 5.79565 1.38309 6.55871 1.9457 7.12132C2.50831 7.68393 3.27137 8 4.06702 8ZM6.31702 11.375C6.31702 10.34 7.15702 9.5 8.19202 9.5H16.442C17.477 9.5 18.317 10.34 18.317 11.375V18.5C18.317 20.0913 17.6849 21.6174 16.5597 22.7426C15.4344 23.8679 13.9083 24.5 12.317 24.5C10.7257 24.5 9.19959 23.8679 8.07438 22.7426C6.94916 21.6174 6.31702 20.0913 6.31702 18.5V11.375ZM4.81702 11.375C4.81702 10.6805 5.02702 10.037 5.38552 9.5H2.19202C1.15702 9.5 0.317017 10.34 0.317017 11.375V17C0.316947 17.6422 0.454324 18.2769 0.719919 18.8616C0.985514 19.4463 1.37317 19.9674 1.85685 20.3898C2.34052 20.8122 2.90901 21.1263 3.52412 21.3108C4.13922 21.4953 4.78669 21.546 5.42302 21.4595C5.02238 20.5243 4.81619 19.5174 4.81702 18.5V11.375ZM19.817 18.5C19.817 19.55 19.601 20.552 19.211 21.4595C19.409 21.4865 19.611 21.5 19.817 21.5C21.0105 21.5 22.1551 21.0259 22.999 20.182C23.8429 19.3381 24.317 18.1935 24.317 17V11.375C24.317 10.34 23.477 9.5 22.442 9.5H19.2485C19.6085 10.037 19.817 10.6805 19.817 11.375V18.5Z" fill="white"/>
</svg>
