<svg width="95" height="23" viewBox="0 0 95 23" fill="none" xmlns="http://www.w3.org/2000/svg">
<path d="M37.778 6.97656C37.778 8.32031 37.6477 9.55729 37.3873 10.6875C37.1269 11.8177 36.7024 12.8177 36.1139 13.6875C35.5253 14.5521 34.7493 15.2109 33.7858 15.6641L32.2623 13.6172C33.1165 13.2474 33.7988 12.7188 34.3092 12.0312C34.8248 11.3438 35.192 10.5755 35.4108 9.72656C35.6347 8.8724 35.7467 7.95573 35.7467 6.97656V5.125H37.778V6.97656ZM38.2545 6.97656C38.2545 7.92448 38.3535 8.80729 38.5514 9.625C38.7545 10.4375 39.0957 11.1745 39.5748 11.8359C40.054 12.4974 40.6842 13.0182 41.4655 13.3984L39.9655 15.3828C39.0488 14.9401 38.317 14.3021 37.7701 13.4688C37.2233 12.6302 36.8352 11.6667 36.6061 10.5781C36.3821 9.48958 36.2701 8.28906 36.2701 6.97656V5.125H38.2545V6.97656ZM44.1764 18.5469H41.6608V4.09375H44.1764V18.5469ZM46.1373 11.5938H43.6295V9.48438H46.1373V11.5938ZM58.7701 14.6094H56.278V4.125H58.7701V14.6094ZM56.5905 10.1562H54.0905V8.14062H56.5905V10.1562ZM54.2701 5.15625C54.2701 6.47917 54.0149 7.67969 53.5045 8.75781C52.9993 9.83073 52.2519 10.7526 51.2623 11.5234C50.278 12.2891 49.0696 12.8906 47.6373 13.3281L46.6295 11.3281C47.6868 11.0208 48.5852 10.6172 49.3248 10.1172C50.0696 9.61198 50.6373 9.03646 51.028 8.39062C51.4186 7.73958 51.6139 7.04948 51.6139 6.32031V5.15625H54.2701ZM53.2076 7.19531H47.3951V5.15625H53.2076V7.19531ZM59.1451 18.3516H49.028V16.3516H59.1451V18.3516ZM51.5748 17.5547H49.028V13.5469H51.5748V17.5547ZM62.5748 18.7031H60.0748L63.7155 5.15625H66.2311L62.5748 18.7031ZM71.778 6.97656C71.778 8.32031 71.6477 9.55729 71.3873 10.6875C71.1269 11.8177 70.7024 12.8177 70.1139 13.6875C69.5253 14.5521 68.7493 15.2109 67.7858 15.6641L66.2623 13.6172C67.1165 13.2474 67.7988 12.7188 68.3092 12.0312C68.8248 11.3438 69.192 10.5755 69.4108 9.72656C69.6347 8.8724 69.7467 7.95573 69.7467 6.97656V5.125H71.778V6.97656ZM72.2545 6.97656C72.2545 7.92448 72.3535 8.80729 72.5514 9.625C72.7545 10.4375 73.0957 11.1745 73.5748 11.8359C74.054 12.4974 74.6842 13.0182 75.4655 13.3984L73.9655 15.3828C73.0488 14.9401 72.317 14.3021 71.7701 13.4688C71.2233 12.6302 70.8352 11.6667 70.6061 10.5781C70.3821 9.48958 70.2701 8.28906 70.2701 6.97656V5.125H72.2545V6.97656ZM78.1764 18.5469H75.6608V4.09375H78.1764V18.5469ZM80.1373 11.5938H77.6295V9.48438H80.1373V11.5938ZM90.9655 7.17969H81.8014V5.21875H90.9655V7.17969ZM93.6608 16.9609H80.4889V14.9453H93.6608V16.9609ZM87.3951 15.9766H84.9108V10.1094H87.3951V15.9766ZM92.567 6.55469C92.567 7.38802 92.5566 8.11198 92.5358 8.72656C92.5149 9.34115 92.4628 10.0651 92.3795 10.8984C92.3014 11.7318 92.1686 12.6406 91.9811 13.625L89.4498 13.3672C89.6373 12.4609 89.7727 11.6068 89.8561 10.8047C89.9446 10.0026 89.9993 9.29427 90.0201 8.67969C90.041 8.0599 90.0514 7.35156 90.0514 6.55469V5.21875H92.567V6.55469Z" fill="white"/>
<path d="M12.3169 14.0988C15.3045 14.0988 17.807 13.0837 17.9583 11.7574L16.552 7.81699C16.222 8.76833 14.3957 9.44339 12.3169 9.44339C10.2382 9.44339 8.41188 8.76833 8.08188 7.81699L6.67686 11.7574C6.82811 13.0837 9.32939 14.0988 12.3169 14.0988ZM12.3169 5.71678C13.7219 5.71678 15.0257 5.28174 15.4082 4.60542C14.882 3.12778 14.4307 1.85891 14.1445 1.06008C13.9545 0.526277 13.0932 0.25 12.3169 0.25C11.5407 0.25 10.6794 0.526277 10.4894 1.06008L9.22564 4.60542C9.60815 5.28174 10.9132 5.71678 12.3169 5.71678ZM23.2921 15.334L18.5983 13.4413L19.1395 14.9502C19.112 16.5491 16.0095 17.8242 12.3169 17.8242C8.62563 17.8242 5.52059 16.5503 5.49434 14.9502L6.0356 13.4413L1.34179 15.334C0.0255237 15.864 -0.0307271 16.8454 1.21929 17.5142L10.0469 22.2484C11.2944 22.9172 13.3382 22.9172 14.587 22.2484L23.4158 17.5142C24.6646 16.8454 24.6083 15.864 23.2921 15.334Z" fill="white"/>
</svg>
