<svg width="80" height="30" viewBox="0 0 80 30" fill="none" xmlns="http://www.w3.org/2000/svg">
<rect width="80" height="30" rx="15" fill="white"/>
<path d="M23.9688 16.4453H10.8672V14.6641H23.9688V16.4453ZM18.7188 18.7734H16.5V15.7891H18.7188V18.7734ZM22.3125 13.6406H12.4766V8.26562H22.3125V13.6406ZM14.6719 11.8984H20.1016V10H14.6719V11.8984ZM22.5312 21.7734H12.3516V19.9688H22.5312V21.7734ZM14.6016 20.5625H12.3516V17.5781H14.6016V20.5625ZM35.7578 13.8516H32.0234V12.0469H35.7578V13.8516ZM29.7812 10.7031C29.7812 11.9948 29.6458 13.1927 29.375 14.2969C29.1094 15.401 28.6823 16.3776 28.0938 17.2266C27.5052 18.0703 26.7526 18.7188 25.8359 19.1719L24.4375 17.3281C25.2552 16.9635 25.9271 16.4401 26.4531 15.7578C26.9792 15.0703 27.362 14.2969 27.6016 13.4375C27.8464 12.5781 27.9688 11.6667 27.9688 10.7031V8.71094H29.7812V10.7031ZM30.25 10.7031C30.25 11.6719 30.362 12.5755 30.5859 13.4141C30.8151 14.2474 31.1823 14.987 31.6875 15.6328C32.1927 16.2786 32.8411 16.7734 33.6328 17.1172L32.2578 18.9062C31.362 18.474 30.6302 17.8542 30.0625 17.0469C29.5 16.2396 29.0911 15.3047 28.8359 14.2422C28.5807 13.1745 28.4531 11.9948 28.4531 10.7031V8.71094H30.25V10.7031ZM36.8672 22.0312H34.6328V7.64844H36.8672V22.0312ZM46.375 10.125C46.375 10.9948 46.263 11.8229 46.0391 12.6094C45.8151 13.3906 45.4557 14.0885 44.9609 14.7031C44.4661 15.3125 43.8359 15.7734 43.0703 16.0859L41.8594 14.3594C42.5156 14.0729 43.0469 13.7031 43.4531 13.25C43.8646 12.7969 44.1615 12.3047 44.3438 11.7734C44.526 11.2422 44.6172 10.6927 44.6172 10.125V8.52344H46.375V10.125ZM46.8047 10.125C46.8047 10.6562 46.8932 11.1641 47.0703 11.6484C47.2526 12.1328 47.5391 12.5703 47.9297 12.9609C48.3203 13.3464 48.8203 13.6589 49.4297 13.8984L48.2344 15.6172C47.4948 15.3307 46.888 14.9141 46.4141 14.3672C45.9401 13.8151 45.5938 13.1771 45.375 12.4531C45.1562 11.7292 45.0469 10.9531 45.0469 10.125V8.52344H46.8047V10.125ZM54.4844 16.4219H52.3516V7.67969H54.4844V16.4219ZM52.9141 12.875H50.7578V11.0625H52.9141V12.875ZM51.375 15.9688H49.2969V7.92188H51.375V15.9688ZM49.5391 16.5703C50.5547 16.5703 51.4375 16.6797 52.1875 16.8984C52.9427 17.112 53.526 17.4219 53.9375 17.8281C54.349 18.2344 54.5547 18.7188 54.5547 19.2812C54.5547 19.8385 54.349 20.3203 53.9375 20.7266C53.526 21.138 52.9427 21.4531 52.1875 21.6719C51.4375 21.8958 50.5547 22.0078 49.5391 22.0078C48.5339 22.0078 47.651 21.8958 46.8906 21.6719C46.1354 21.4531 45.5521 21.138 45.1406 20.7266C44.7344 20.3203 44.5312 19.8385 44.5312 19.2812C44.5312 18.7188 44.7344 18.2344 45.1406 17.8281C45.5521 17.4219 46.1328 17.112 46.8828 16.8984C47.638 16.6797 48.5234 16.5703 49.5391 16.5703ZM49.5391 18.2344C48.9453 18.2344 48.4427 18.2734 48.0312 18.3516C47.6198 18.4297 47.3099 18.5443 47.1016 18.6953C46.8932 18.8464 46.7891 19.0417 46.7891 19.2812C46.7891 19.5104 46.8932 19.7031 47.1016 19.8594C47.3099 20.0156 47.6172 20.1328 48.0234 20.2109C48.4349 20.2839 48.9401 20.3203 49.5391 20.3203C50.138 20.3203 50.6406 20.2839 51.0469 20.2109C51.4531 20.1328 51.763 20.0156 51.9766 19.8594C52.1901 19.7031 52.2969 19.5104 52.2969 19.2812C52.2969 19.0417 52.1901 18.8464 51.9766 18.6953C51.763 18.5443 51.4505 18.4297 51.0391 18.3516C50.6276 18.2734 50.1276 18.2344 49.5391 18.2344ZM61.0938 9.625C61.0938 10.6302 60.9479 11.5599 60.6562 12.4141C60.3646 13.2682 59.9115 14.013 59.2969 14.6484C58.6875 15.2786 57.9141 15.7526 56.9766 16.0703L55.7812 14.2734C56.5938 14.0234 57.2578 13.6589 57.7734 13.1797C58.2943 12.7005 58.6719 12.1615 58.9062 11.5625C59.1406 10.9583 59.2578 10.3125 59.2578 9.625V8.39062H61.0938V9.625ZM61.5234 9.50781C61.5234 10.1693 61.6276 10.7865 61.8359 11.3594C62.0495 11.9271 62.3958 12.4323 62.875 12.875C63.3542 13.3125 63.9714 13.6458 64.7266 13.875L63.5312 15.625C62.6458 15.3229 61.9193 14.8776 61.3516 14.2891C60.7891 13.6953 60.3776 12.9974 60.1172 12.1953C59.8568 11.3932 59.7266 10.4974 59.7266 9.50781V8.39062H61.5234V9.50781ZM68.0938 16.0234H65.8594V7.64844H68.0938V16.0234ZM63.1562 16.3828C64.1875 16.3828 65.0755 16.4922 65.8203 16.7109C66.5651 16.9297 67.138 17.2526 67.5391 17.6797C67.9401 18.1016 68.1406 18.6094 68.1406 19.2031C68.1406 19.7917 67.9401 20.2969 67.5391 20.7188C67.138 21.1406 66.5651 21.4609 65.8203 21.6797C65.0755 21.8984 64.1875 22.0078 63.1562 22.0078C62.1354 22.0078 61.25 21.8984 60.5 21.6797C59.7552 21.4609 59.1823 21.1406 58.7812 20.7188C58.3854 20.2969 58.1875 19.7917 58.1875 19.2031C58.1875 18.6094 58.3854 18.1016 58.7812 17.6797C59.1823 17.2526 59.7552 16.9297 60.5 16.7109C61.25 16.4922 62.1354 16.3828 63.1562 16.3828ZM63.1562 18.125C62.5521 18.125 62.0469 18.1615 61.6406 18.2344C61.2396 18.3073 60.9349 18.4245 60.7266 18.5859C60.5234 18.7474 60.4219 18.9531 60.4219 19.2031C60.4219 19.4375 60.5234 19.6354 60.7266 19.7969C60.9349 19.9531 61.2396 20.0703 61.6406 20.1484C62.0469 20.2266 62.5521 20.2656 63.1562 20.2656C63.7656 20.2656 64.2734 20.2266 64.6797 20.1484C65.0859 20.0703 65.3906 19.9531 65.5938 19.7969C65.7969 19.6354 65.8984 19.4375 65.8984 19.2031C65.8984 18.9531 65.7969 18.7474 65.5938 18.5859C65.3906 18.4245 65.0859 18.3073 64.6797 18.2344C64.2734 18.1615 63.7656 18.125 63.1562 18.125ZM66.1328 11.9844H63.3281V10.1484H66.1328V11.9844Z" fill="#363866"/>
</svg>
