<svg width="63" height="25" viewBox="0 0 63 25" fill="none" xmlns="http://www.w3.org/2000/svg">
<path d="M32.957 6.904H41.677V8.584H32.957V6.904ZM37.325 9.048C39.453 9.048 40.957 10.152 40.957 11.784C40.957 13.416 39.453 14.504 37.325 14.504C35.181 14.504 33.677 13.416 33.677 11.784C33.677 10.152 35.181 9.048 37.325 9.048ZM37.325 10.648C36.365 10.648 35.725 11.032 35.725 11.784C35.725 12.52 36.365 12.904 37.325 12.904C38.269 12.904 38.925 12.52 38.925 11.784C38.925 11.032 38.269 10.648 37.325 10.648ZM42.493 5.608H44.621V14.904H42.493V5.608ZM44.029 9.432H46.589V11.16H44.029V9.432ZM34.733 15.512H44.621V20.424H42.493V17.208H34.733V15.512ZM36.253 5.528H38.381V7.864H36.253V5.528ZM50.3478 6.504H52.0118V8.216C52.0118 10.728 51.0038 13.24 48.5878 14.264L47.4678 12.616C49.5318 11.704 50.3478 9.88 50.3478 8.216V6.504ZM50.7318 6.504H52.3958V8.216C52.3958 9.8 53.1958 11.4 55.1478 12.168L54.0118 13.784C51.7078 12.872 50.7318 10.632 50.7318 8.216V6.504ZM58.2838 5.624H60.2998V14.664H58.2838V5.624ZM56.5078 9.208H58.8598V10.92H56.5078V9.208ZM55.1478 5.896H57.1318V14.2H55.1478V5.896ZM55.2758 14.872C58.3798 14.872 60.3798 15.912 60.3798 17.656C60.3798 19.384 58.3798 20.424 55.2758 20.424C52.1558 20.424 50.1878 19.384 50.1878 17.656C50.1878 15.912 52.1558 14.872 55.2758 14.872ZM55.2758 16.472C53.3718 16.472 52.2998 16.872 52.2998 17.656C52.2998 18.44 53.3718 18.824 55.2758 18.824C57.1798 18.824 58.2358 18.44 58.2358 17.656C58.2358 16.872 57.1798 16.472 55.2758 16.472Z" fill="white"/>
<path d="M12.317 12C10.667 12 9.25452 11.4125 8.07952 10.2375C6.90452 9.0625 6.31702 7.65 6.31702 6C6.31702 4.35 6.90452 2.9375 8.07952 1.7625C9.25452 0.5875 10.667 0 12.317 0C13.967 0 15.3795 0.5875 16.5545 1.7625C17.7295 2.9375 18.317 4.35 18.317 6C18.317 7.65 17.7295 9.0625 16.5545 10.2375C15.3795 11.4125 13.967 12 12.317 12ZM0.317017 24V19.8C0.317017 18.95 0.536017 18.169 0.974017 17.457C1.41202 16.745 1.99302 16.201 2.71702 15.825C4.26702 15.05 5.84202 14.469 7.44202 14.082C9.04202 13.695 10.667 13.501 12.317 13.5C13.967 13.499 15.592 13.693 17.192 14.082C18.792 14.471 20.367 15.052 21.917 15.825C22.642 16.2 23.2235 16.744 23.6615 17.457C24.0995 18.17 24.318 18.951 24.317 19.8V24H0.317017Z" fill="white"/>
</svg>
