<svg width="28" height="28" viewBox="0 0 28 28" fill="none" xmlns="http://www.w3.org/2000/svg">
<rect width="28" height="28" rx="4" fill="white"/>
<path d="M23.6849 18.1295C23.7848 18.2264 23.864 18.3416 23.9181 18.4684C23.9722 18.5952 24 18.7312 24 18.8685C24 19.0058 23.9722 19.1417 23.9181 19.2685C23.864 19.3953 23.7848 19.5105 23.6849 19.6074L21.5422 21.6939C21.341 21.8899 21.068 22 20.7834 22C20.4987 22 20.2258 21.8899 20.0245 21.6939C19.8232 21.4979 19.7102 21.2321 19.7102 20.9549C19.7102 20.6778 19.8232 20.412 20.0245 20.216L20.3379 19.9108H20.1513C19.0714 19.9097 18.0072 19.6581 17.047 19.1769C16.0868 18.6957 15.2581 17.9987 14.6294 17.1436L10.9083 12.0674C10.4783 11.4822 9.91127 11.0052 9.25423 10.676C8.59719 10.3467 7.86903 10.1746 7.13009 10.1739H5.07134C4.7872 10.1739 4.5147 10.064 4.31379 9.86835C4.11287 9.6727 4 9.40735 4 9.13067C4 8.85398 4.11287 8.58863 4.31379 8.39298C4.5147 8.19734 4.7872 8.08742 5.07134 8.08742H7.13009C8.21 8.08859 9.27411 8.34018 10.2343 8.82138C11.1946 9.30259 12.0233 9.99956 12.6519 10.8546L16.3757 15.9309C16.8057 16.516 17.3728 16.993 18.0298 17.3223C18.6869 17.6516 19.415 17.8237 20.154 17.8244H20.3379L20.0236 17.5192C19.8223 17.3232 19.7093 17.0574 19.7093 16.7802C19.7093 16.5031 19.8223 16.2373 20.0236 16.0413C20.2249 15.8453 20.4978 15.7352 20.7825 15.7352C21.0671 15.7352 21.3401 15.8453 21.5413 16.0413L23.6849 18.1295ZM15.1481 11.8161C15.362 11.9983 15.6413 12.0902 15.9248 12.0718C16.2082 12.0534 16.4725 11.9261 16.6596 11.7179C17.0954 11.2329 17.6326 10.8442 18.2353 10.5779C18.838 10.3116 19.4921 10.1739 20.154 10.1739H20.3379L20.0236 10.4791C19.8223 10.675 19.7093 10.9409 19.7093 11.218C19.7093 11.4952 19.8223 11.761 20.0236 11.957C20.2249 12.153 20.4978 12.2631 20.7825 12.2631C21.0671 12.2631 21.3401 12.153 21.5413 11.957L23.684 9.8705C23.7839 9.77358 23.8631 9.65841 23.9172 9.5316C23.9713 9.4048 23.9991 9.26884 23.9991 9.13154C23.9991 8.99423 23.9713 8.85828 23.9172 8.73147C23.8631 8.60466 23.7839 8.48949 23.684 8.39257L21.5413 6.30609C21.3401 6.1101 21.0671 6 20.7825 6C20.4978 6 20.2249 6.1101 20.0236 6.30609C19.8223 6.50207 19.7093 6.76789 19.7093 7.04505C19.7093 7.32222 19.8223 7.58803 20.0236 7.78401L20.3379 8.08742H20.1513C19.1838 8.08788 18.2276 8.2898 17.3468 8.67965C16.466 9.0695 15.6811 9.63826 15.0446 10.3478C14.859 10.5562 14.7657 10.8276 14.7851 11.1028C14.8045 11.3779 14.935 11.6344 15.1481 11.8161ZM12.1359 16.1821C11.9221 16 11.6427 15.9081 11.3593 15.9265C11.0758 15.9449 10.8115 16.0722 10.6244 16.2804C10.1886 16.7654 9.65141 17.1541 9.04874 17.4204C8.44607 17.6867 7.7919 17.8244 7.13009 17.8244H5.07134C4.7872 17.8244 4.5147 17.9343 4.31379 18.1299C4.11287 18.3256 4 18.5909 4 18.8676C4 19.1443 4.11287 19.4096 4.31379 19.6053C4.5147 19.8009 4.7872 19.9108 5.07134 19.9108H7.13009C8.09757 19.9104 9.05377 19.7085 9.93454 19.3186C10.8153 18.9288 11.6003 18.36 12.2368 17.6505C12.4227 17.4424 12.5164 17.1712 12.4975 16.896C12.4786 16.6209 12.3486 16.3642 12.1359 16.1821Z" fill="#363866"/>
</svg>
