<svg width="80" height="24" viewBox="0 0 80 24" fill="none" xmlns="http://www.w3.org/2000/svg">
<path d="M48.125 19.4375H46.2031V5.20312H48.125V19.4375ZM46.7266 12.3281H44.3125V10.7109H46.7266V12.3281ZM44.875 18.75H43.0078V5.46094H44.875V18.75ZM38.4297 15.0078H36.4375V6.79688H38.4297V15.0078ZM37.3906 14.2422C38.2135 14.2422 39.0156 14.2109 39.7969 14.1484C40.5781 14.0859 41.3776 13.9792 42.1953 13.8281L42.4062 15.5469C41.5104 15.6979 40.651 15.8073 39.8281 15.875C39.0104 15.9375 38.1979 15.9688 37.3906 15.9688H36.4375V14.2422H37.3906ZM60.2031 10.2969H57.4688V8.67969H60.2031V10.2969ZM61.6719 13.6641H59.6875V5.20312H61.6719V13.6641ZM56.8125 13.9766C57.8281 13.9766 58.7031 14.0859 59.4375 14.3047C60.1719 14.5182 60.7344 14.8307 61.125 15.2422C61.5208 15.6536 61.7188 16.1458 61.7188 16.7188C61.7188 17.2865 61.5208 17.7734 61.125 18.1797C60.7344 18.5911 60.1719 18.9062 59.4375 19.125C58.7031 19.3438 57.8281 19.4557 56.8125 19.4609C55.8073 19.4557 54.9375 19.3438 54.2031 19.125C53.474 18.9062 52.9115 18.5911 52.5156 18.1797C52.125 17.7734 51.9297 17.2865 51.9297 16.7188C51.9297 16.1458 52.125 15.6536 52.5156 15.2422C52.9115 14.8307 53.474 14.5182 54.2031 14.3047C54.9375 14.0859 55.8073 13.9766 56.8125 13.9766ZM56.8125 15.4922C56.1875 15.4922 55.6589 15.5365 55.2266 15.625C54.7943 15.7135 54.4661 15.849 54.2422 16.0312C54.0182 16.2135 53.9062 16.4427 53.9062 16.7188C53.9062 16.9792 54.0182 17.2031 54.2422 17.3906C54.4661 17.5729 54.7943 17.7109 55.2266 17.8047C55.6589 17.8932 56.1875 17.9375 56.8125 17.9375C57.4531 17.9375 57.9896 17.8932 58.4219 17.8047C58.8542 17.7109 59.1797 17.5729 59.3984 17.3906C59.6172 17.2031 59.7266 16.9792 59.7266 16.7188C59.7266 16.4427 59.6172 16.2135 59.3984 16.0312C59.1797 15.849 58.8542 15.7135 58.4219 15.625C57.9896 15.5365 57.4531 15.4922 56.8125 15.4922ZM54.6484 7.57812C54.6484 8.5 54.5 9.36458 54.2031 10.1719C53.9062 10.9792 53.4557 11.6901 52.8516 12.3047C52.2526 12.9141 51.5156 13.3698 50.6406 13.6719L49.6016 12.0859C50.362 11.8307 50.9974 11.4688 51.5078 11C52.0234 10.526 52.4036 9.99479 52.6484 9.40625C52.8984 8.8125 53.0234 8.20312 53.0234 7.57812V6.64062H54.6484V7.57812ZM55.0547 7.5625C55.0547 8.14062 55.1719 8.70052 55.4062 9.24219C55.6458 9.78385 56.0104 10.2734 56.5 10.7109C56.9896 11.1484 57.599 11.4896 58.3281 11.7344L57.3438 13.2969C56.4844 13.0156 55.7604 12.5885 55.1719 12.0156C54.5885 11.4375 54.1536 10.7656 53.8672 10C53.5807 9.23438 53.4375 8.42188 53.4375 7.5625V6.64062H55.0547V7.5625ZM57.8906 7.67969H50.1719V6.07031H57.8906V7.67969ZM76.5234 17.7812H63.5234V16.1719H76.5234V17.7812ZM70.9766 16.5703H69.0156V13.0859H70.9766V16.5703ZM66.8984 8.33594H73.0938V6.11719H75.0781V13.5312H64.8984V6.11719H66.8984V8.33594ZM73.0938 11.9375V9.91406H66.8984V11.9375H73.0938Z" fill="white"/>
<path d="M13.5 12C11.6437 12 10.0547 11.4125 8.73281 10.2375C7.41094 9.0625 6.75 7.65 6.75 6C6.75 4.35 7.41094 2.9375 8.73281 1.7625C10.0547 0.5875 11.6437 0 13.5 0C15.3562 0 16.9453 0.5875 18.2672 1.7625C19.5891 2.9375 20.25 4.35 20.25 6C20.25 7.65 19.5891 9.0625 18.2672 10.2375C16.9453 11.4125 15.3562 12 13.5 12ZM0 24V19.8C0 18.95 0.246375 18.169 0.739125 17.457C1.23188 16.745 1.8855 16.201 2.7 15.825C4.44375 15.05 6.21562 14.469 8.01562 14.082C9.81562 13.695 11.6437 13.501 13.5 13.5C15.3562 13.499 17.1844 13.693 18.9844 14.082C20.7844 14.471 22.5562 15.052 24.3 15.825C25.1156 16.2 25.7698 16.744 26.2626 17.457C26.7553 18.17 27.0011 18.951 27 19.8V24H0Z" fill="white"/>
</svg>
